<svg width="195" height="181" viewBox="0 0 195 181" fill="none" xmlns="http://www.w3.org/2000/svg">
<g clip-path="url(#clip0_2_395)">
<path d="M89.0529 123.072C89.0529 123.072 74.9185 61.8232 123.53 27.1255C143.45 83.4283 96.7488 125.493 96.7488 125.493L99.5519 103.191L89.0529 123.072Z" fill="#E5E4DD"/>
<path d="M-4.93213 116.469C23.7427 135.263 56.5294 146.858 90.6437 150.271C73.5717 110.754 43.2335 96.5865 -4.93213 116.469Z" fill="#E5E4DD"/>
<path d="M97.373 150.055C149.11 147.432 192.597 117.15 192.648 116.854C148.631 97.8723 116.66 108.412 97.373 150.055Z" fill="#E5E4DD"/>
<path d="M99.5973 103.105L89.0529 123.072C89.0529 123.072 74.9185 61.8232 123.53 27.1255C143.45 83.4283 96.7488 125.493 96.7488 125.493L99.5645 103.091M38.5784 38.0407C63.703 39.6831 84.6417 65.2629 84.6417 65.2629C78.37 80.0276 76.651 96.329 79.705 112.077C56.4293 91.6968 34.843 70.5609 38.5737 38.0407M-4.93213 116.469C23.7427 135.263 56.5294 146.858 90.6437 150.271C73.5717 110.754 43.2335 96.5865 -4.93213 116.469ZM97.373 150.055C149.11 147.432 192.597 117.15 192.648 116.854C148.631 97.8723 116.66 108.412 97.373 150.055Z" stroke="#7AA37A" stroke-width="1.23297" stroke-linecap="round" stroke-linejoin="round"/>
</g>
<defs>
<clipPath id="clip0_2_395">
<rect width="194.81" height="180.014" fill="white"/>
</clipPath>
</defs>
</svg>
