<svg width="50" height="42" viewBox="0 0 50 42" fill="none" xmlns="http://www.w3.org/2000/svg">
<rect x="0.61014" y="0.61014" width="48.7797" height="40.7797" rx="9.1521" fill="#EF4444" fill-opacity="0.24"/>
<rect x="0.61014" y="0.61014" width="48.7797" height="40.7797" rx="9.1521" stroke="#F3F4F6" stroke-width="1.22028"/>
<path d="M20 30C19.45 30 18.9793 29.8043 18.588 29.413C18.1967 29.0217 18.0007 28.5507 18 28V15H17V13H22V12H28V13H33V15H32V28C32 28.55 31.8043 29.021 31.413 29.413C31.0217 29.805 30.5507 30.0007 30 30H20ZM22 26H24V17H22V26ZM26 26H28V17H26V26Z" fill="#EF4444"/>
</svg>
