<svg width="60" height="60" viewBox="0 0 60 60" fill="none" xmlns="http://www.w3.org/2000/svg">
<rect x="1.248" y="1.248" width="57.4078" height="57.4078" rx="18.72" fill="#F0FDF4"/>
<rect x="1.248" y="1.248" width="57.4078" height="57.4078" rx="18.72" stroke="#EEF0E8" stroke-width="2.49599"/>
<g opacity="0.5">
<path d="M23.9209 24.7822C23.2353 24.7822 22.5778 25.0546 22.0931 25.5393C21.6083 26.0241 21.3359 26.6816 21.3359 27.3672C21.3359 28.0527 21.6083 28.7102 22.0931 29.195C22.5778 29.6798 23.2353 29.9521 23.9209 29.9521C24.6065 29.9521 25.264 29.6798 25.7487 29.195C26.2335 28.7102 26.5058 28.0527 26.5058 27.3672C26.5058 26.6816 26.2335 26.0241 25.7487 25.5393C25.264 25.0546 24.6065 24.7822 23.9209 24.7822ZM35.984 24.7822C34.5536 24.7822 33.399 25.9368 33.399 27.3672C33.399 28.7975 34.5536 29.9521 35.984 29.9521C37.4143 29.9521 38.5689 28.7975 38.5689 27.3672C38.5689 25.9368 37.4143 24.7822 35.984 24.7822ZM29.9524 40.2919C36.8456 40.2919 38.5689 33.3987 38.5689 33.3987H21.3359C21.3359 33.3987 23.0592 40.2919 29.9524 40.2919Z" fill="#00511E"/>
<path d="M29.9517 12.7192C20.4564 12.7192 12.7188 20.4569 12.7188 29.9522C12.7188 39.4476 20.4564 47.1852 29.9517 47.1852C39.4471 47.1852 47.1847 39.4476 47.1847 29.9522C47.1847 20.4569 39.4471 12.7192 29.9517 12.7192ZM29.9517 43.7386C22.352 43.7386 16.1653 37.552 16.1653 29.9522C16.1653 22.3525 22.352 16.1658 29.9517 16.1658C37.5515 16.1658 43.7381 22.3525 43.7381 29.9522C43.7381 37.552 37.5515 43.7386 29.9517 43.7386Z" fill="#00511E"/>
</g>
</svg>
