<svg width="17" height="14" viewBox="0 0 17 14" fill="none" xmlns="http://www.w3.org/2000/svg">
<g clip-path="url(#clip0_21_607)">
<path d="M13.9585 2.82357C13.2708 2.13557 12.3379 1.74902 11.3652 1.74902C10.3924 1.74902 9.45953 2.13557 8.77185 2.82357L8.06518 3.53024L7.35852 2.82357C6.43201 1.89707 5.08159 1.53522 3.81596 1.87435C2.55032 2.21347 1.56175 3.20205 1.22262 4.46768C0.883498 5.73332 1.24534 7.08373 2.17185 8.01024L2.87852 8.71691L8.06518 13.9036L13.2519 8.71691L13.9585 8.01024C14.6465 7.32256 15.0331 6.38967 15.0331 5.41691C15.0331 4.44415 14.6465 3.51126 13.9585 2.82357Z" fill="#EF4444"/>
<path d="M13.9585 2.82357C13.2708 2.13557 12.3379 1.74902 11.3652 1.74902C10.3924 1.74902 9.45953 2.13557 8.77185 2.82357L8.06518 3.53024L7.35852 2.82357C6.43201 1.89707 5.08159 1.53522 3.81596 1.87435C2.55032 2.21347 1.56175 3.20205 1.22262 4.46768C0.883498 5.73332 1.24534 7.08373 2.17185 8.01024L2.87852 8.71691L8.06518 13.9036L13.2519 8.71691L13.9585 8.01024C14.6465 7.32256 15.0331 6.38967 15.0331 5.41691C15.0331 4.44415 14.6465 3.51126 13.9585 2.82357V2.82357" stroke="#EF4444" stroke-width="1.15723"/>
</g>
<defs>
<clipPath id="clip0_21_607">
<rect width="17" height="14" fill="white"/>
</clipPath>
</defs>
</svg>
