<svg width="60" height="60" viewBox="0 0 60 60" fill="none" xmlns="http://www.w3.org/2000/svg">
<rect width="59.9038" height="59.9038" rx="19.9679" fill="#F3F2F2"/>
<g opacity="0.5">
<path d="M24.478 28.1269C24.9619 28.1269 25.426 27.9346 25.7682 27.5924C26.1104 27.2503 26.3027 26.7861 26.3027 26.3022C26.3027 25.8183 26.1104 25.3542 25.7682 25.012C25.426 24.6698 24.9619 24.4775 24.478 24.4775C23.9941 24.4775 23.5299 24.6698 23.1878 25.012C22.8456 25.3542 22.6533 25.8183 22.6533 26.3022C22.6533 26.7861 22.8456 27.2503 23.1878 27.5924C23.5299 27.9346 23.9941 28.1269 24.478 28.1269ZM24.478 35.4256C23.9941 35.4256 23.5299 35.6178 23.1878 35.96C22.8456 36.3022 22.6533 36.7663 22.6533 37.2502C22.6533 37.7342 22.8456 38.1983 23.1878 38.5405C23.5299 38.8827 23.9941 39.0749 24.478 39.0749H35.426C35.9099 39.0749 36.3741 38.8827 36.7163 38.5405C37.0584 38.1983 37.2507 37.7342 37.2507 37.2502C37.2507 36.7663 37.0584 36.3022 36.7163 35.96C36.3741 35.6178 35.9099 35.4256 35.426 35.4256H24.478ZM37.2507 26.3022C37.2507 26.7861 37.0584 27.2503 36.7163 27.5924C36.3741 27.9346 35.9099 28.1269 35.426 28.1269C34.9421 28.1269 34.478 27.9346 34.1358 27.5924C33.7936 27.2503 33.6013 26.7861 33.6013 26.3022C33.6013 25.8183 33.7936 25.3542 34.1358 25.012C34.478 24.6698 34.9421 24.4775 35.426 24.4775C35.9099 24.4775 36.3741 24.6698 36.7163 25.012C37.0584 25.3542 37.2507 25.8183 37.2507 26.3022Z" fill="#002F7D"/>
<path fill-rule="evenodd" clip-rule="evenodd" d="M48.1985 29.9518C48.1985 40.0294 40.0294 48.1985 29.9518 48.1985C19.8741 48.1985 11.7051 40.0294 11.7051 29.9518C11.7051 19.8741 19.8741 11.7051 29.9518 11.7051C40.0294 11.7051 48.1985 19.8741 48.1985 29.9518ZM44.5491 29.9518C44.5491 33.8232 43.0112 37.5361 40.2737 40.2737C37.5361 43.0112 33.8232 44.5491 29.9518 44.5491C26.0803 44.5491 22.3674 43.0112 19.6299 40.2737C16.8924 37.5361 15.3544 33.8232 15.3544 29.9518C15.3544 26.0803 16.8924 22.3674 19.6299 19.6299C22.3674 16.8924 26.0803 15.3544 29.9518 15.3544C33.8232 15.3544 37.5361 16.8924 40.2737 19.6299C43.0112 22.3674 44.5491 26.0803 44.5491 29.9518Z" fill="#002F7D"/>
</g>
</svg>
