<svg width="38" height="33" viewBox="0 0 38 33" fill="none" xmlns="http://www.w3.org/2000/svg">
<rect x="0.1" y="0.1" width="37.8" height="32.8" rx="11.9" fill="#FDF4E8"/>
<rect x="0.1" y="0.1" width="37.8" height="32.8" rx="11.9" stroke="black" stroke-width="0.2"/>
<path d="M26.7271 12.3333V22.3333C26.7271 22.7917 26.564 23.1842 26.2379 23.5108C25.9118 23.8375 25.5193 24.0006 25.0604 24H13.3937C12.9354 24 12.5432 23.8369 12.2171 23.5108C11.8909 23.1847 11.7276 22.7922 11.7271 22.3333V10.6667C11.7271 10.2083 11.8904 9.81611 12.2171 9.49C12.5437 9.16389 12.9359 9.00056 13.3937 9H23.3937L26.7271 12.3333ZM20.9979 20.7708C21.484 20.2847 21.7271 19.6944 21.7271 19C21.7271 18.3056 21.484 17.7153 20.9979 17.2292C20.5118 16.7431 19.9215 16.5 19.2271 16.5C18.5326 16.5 17.9423 16.7431 17.4562 17.2292C16.9701 17.7153 16.7271 18.3056 16.7271 19C16.7271 19.6944 16.9701 20.2847 17.4562 20.7708C17.9423 21.2569 18.5326 21.5 19.2271 21.5C19.9215 21.5 20.5118 21.2569 20.9979 20.7708ZM14.2271 14.8333H21.7271V11.5H14.2271V14.8333Z" fill="#FBB353"/>
</svg>
