<svg width="60" height="60" viewBox="0 0 60 60" fill="none" xmlns="http://www.w3.org/2000/svg">
<rect width="59.9038" height="59.9038" rx="19.9679" fill="#FCEBE8"/>
<g opacity="0.5">
<path d="M24.859 28.0765C25.3228 28.0765 25.7675 27.8949 26.0955 27.5717C26.4234 27.2486 26.6076 26.8102 26.6076 26.3532C26.6076 25.8961 26.4234 25.4578 26.0955 25.1346C25.7675 24.8114 25.3228 24.6299 24.859 24.6299C24.3952 24.6299 23.9505 24.8114 23.6225 25.1346C23.2946 25.4578 23.1104 25.8961 23.1104 26.3532C23.1104 26.8102 23.2946 27.2486 23.6225 27.5717C23.9505 27.8949 24.3952 28.0765 24.859 28.0765ZM33.6022 38.4163C33.6022 37.5022 33.2337 36.6255 32.5779 35.9792C31.922 35.3328 31.0325 34.9697 30.1049 34.9697C29.1774 34.9697 28.2878 35.3328 27.632 35.9792C26.9761 36.6255 26.6076 37.5022 26.6076 38.4163H23.1104C23.1104 36.5881 23.8473 34.8348 25.159 33.5421C26.4708 32.2493 28.2498 31.5231 30.1049 31.5231C31.96 31.5231 33.7391 32.2493 35.0508 33.5421C36.3626 34.8348 37.0995 36.5881 37.0995 38.4163H33.6022ZM37.0995 26.3532C37.0995 26.8102 36.9153 27.2486 36.5873 27.5717C36.2594 27.8949 35.8146 28.0765 35.3509 28.0765C34.8871 28.0765 34.4423 27.8949 34.1144 27.5717C33.7864 27.2486 33.6022 26.8102 33.6022 26.3532C33.6022 25.8961 33.7864 25.4578 34.1144 25.1346C34.4423 24.8114 34.8871 24.6299 35.3509 24.6299C35.8146 24.6299 36.2594 24.8114 36.5873 25.1346C36.9153 25.4578 37.0995 25.8961 37.0995 26.3532Z" fill="#0062FF"/>
<path fill-rule="evenodd" clip-rule="evenodd" d="M47.591 29.7999C47.591 39.3177 39.7623 47.0329 30.1046 47.0329C20.4468 47.0329 12.6182 39.3177 12.6182 29.7999C12.6182 20.2821 20.4468 12.5669 30.1046 12.5669C39.7623 12.5669 47.591 20.2821 47.591 29.7999ZM44.0937 29.7999C44.0937 33.4563 42.6199 36.9629 39.9964 39.5483C37.3729 42.1338 33.8147 43.5863 30.1046 43.5863C26.3944 43.5863 22.8362 42.1338 20.2128 39.5483C17.5893 36.9629 16.1154 33.4563 16.1154 29.7999C16.1154 26.1435 17.5893 22.6369 20.2128 20.0514C22.8362 17.466 26.3944 16.0135 30.1046 16.0135C33.8147 16.0135 37.3729 17.466 39.9964 20.0514C42.6199 22.6369 44.0937 26.1435 44.0937 29.7999Z" fill="#0062FF"/>
</g>
</svg>
