<svg width="60" height="60" viewBox="0 0 60 60" fill="none" xmlns="http://www.w3.org/2000/svg">
<rect width="59.9038" height="59.9038" rx="19.9679" fill="#FDF0E8"/>
<g opacity="0.59">
<path fill-rule="evenodd" clip-rule="evenodd" d="M29.9517 13.2256C39.1896 13.2256 46.6779 20.7139 46.6779 29.9517C46.6779 39.1896 39.1896 46.6779 29.9517 46.6779C20.7139 46.6779 13.2256 39.1896 13.2256 29.9517C13.2256 20.7139 20.7139 13.2256 29.9517 13.2256ZM29.9517 16.5708C26.4029 16.5708 22.9994 17.9806 20.49 20.49C17.9806 22.9994 16.5708 26.4029 16.5708 29.9517C16.5708 33.5006 17.9806 36.9041 20.49 39.4135C22.9994 41.9229 26.4029 43.3326 29.9517 43.3326C33.5006 43.3326 36.9041 41.9229 39.4135 39.4135C41.9229 36.9041 43.3326 33.5006 43.3326 29.9517C43.3326 26.4029 41.9229 22.9994 39.4135 20.49C36.9041 17.9806 33.5006 16.5708 29.9517 16.5708ZM29.9517 31.6243C32.0709 31.6243 34.0112 32.4155 35.4847 33.7151C35.8174 34.0088 36.0199 34.4226 36.0475 34.8655C36.0751 35.3084 35.9256 35.7441 35.6319 36.0768C35.3383 36.4095 34.9245 36.612 34.4815 36.6396C34.0386 36.6672 33.6029 36.5177 33.2702 36.224C32.3537 35.4158 31.1737 34.9697 29.9517 34.9696C28.6789 34.9696 27.5181 35.4413 26.6333 36.224C26.4685 36.3693 26.2768 36.4808 26.069 36.552C25.8612 36.6232 25.6414 36.6527 25.4222 36.639C25.2029 36.6252 24.9886 36.5684 24.7913 36.4718C24.594 36.3753 24.4177 36.2407 24.2724 36.076C24.1271 35.9113 24.0156 35.7195 23.9444 35.5117C23.8732 35.3039 23.8437 35.0841 23.8574 34.8649C23.8712 34.6457 23.928 34.4313 24.0246 34.234C24.1212 34.0367 24.2557 33.8604 24.4204 33.7151C25.948 32.3679 27.9149 31.6244 29.9517 31.6243ZM24.0976 23.2613C24.763 23.2613 25.4011 23.5256 25.8717 23.9961C26.3422 24.4666 26.6065 25.1048 26.6065 25.7702C26.6065 26.4356 26.3422 27.0738 25.8717 27.5443C25.4011 28.0148 24.763 28.2791 24.0976 28.2791C23.4322 28.2791 22.794 28.0148 22.3235 27.5443C21.853 27.0738 21.5887 26.4356 21.5887 25.7702C21.5887 25.1048 21.853 24.4666 22.3235 23.9961C22.794 23.5256 23.4322 23.2613 24.0976 23.2613ZM35.8059 23.2613C36.4713 23.2613 37.1094 23.5256 37.58 23.9961C38.0505 24.4666 38.3148 25.1048 38.3148 25.7702C38.3148 26.4356 38.0505 27.0738 37.58 27.5443C37.1094 28.0148 36.4713 28.2791 35.8059 28.2791C35.1405 28.2791 34.5023 28.0148 34.0318 27.5443C33.5613 27.0738 33.297 26.4356 33.297 25.7702C33.297 25.1048 33.5613 24.4666 34.0318 23.9961C34.5023 23.5256 35.1405 23.2613 35.8059 23.2613Z" fill="#FF9200"/>
</g>
</svg>
